<mxfile host="app.diagrams.net" modified="2023-10-27T07:52:33.739Z" agent="Mozilla/5.0 (Macintosh; Intel Mac OS X 10_15_7) AppleWebKit/605.1.15 (KHTML, like Gecko) Version/17.1 Safari/605.1.15" version="22.0.8" etag="NwsdSRFRF4cEIpY1hNDA" type="github">
  <diagram name="Page-1" id="DBr8B_Nhg6rmaTwx7HeE">
    <mxGraphModel>
      <root>
        <mxCell id="0" />
        <mxCell id="1" parent="0" />
      </root>
    </mxGraphModel>
  </diagram>
</mxfile>
